<svg xmlns="http://www.w3.org/2000/svg" xmlns:xlink="http://www.w3.org/1999/xlink" width="124" height="23" viewBox="0 0 124 23">
    <defs>
        <path id="vfphzmagpa" d="M0 0.322L15.451 0.322 15.451 22.796 0 22.796z"/>
    </defs>
    <g fill="none" fill-rule="evenodd">
        <path fill="#444" d="M20 7L26 7 26 8.545 21.536 8.545 21.536 11.138 25.908 11.138 25.908 12.682 21.536 12.682 21.536 17 20 17zM31 17L32 17 32 7 31 7zM38.619 9.714L38.619 17 37 17 37 7 38.661 7 43.381 14.091 43.381 7 45 7 45 17 43.436 17zM51.619 9.714L51.619 17 50 17 50 7 51.661 7 56.381 14.091 56.381 7 58 7 58 17 56.436 17zM67.336 8.181c-1.9 0-3.112 1.444-3.112 3.378 0 1.92 1.211 3.378 3.112 3.378 1.888 0 3.113-1.458 3.113-3.378 0-1.934-1.225-3.378-3.113-3.378m0-1.457c2.817 0 4.803 2.046 4.803 4.835s-1.986 4.835-4.803 4.835-4.802-2.046-4.802-4.835 1.985-4.835 4.802-4.835M84.659 9.149L81.771 16.226 81.067 16.226 78.194 9.149 78.194 16.226 76.546 16.226 76.546 6.878 78.87 6.878 81.42 13.17 83.983 6.878 86.307 6.878 86.307 16.226 84.659 16.226zM91.122 6.878L97.558 6.878 97.558 8.322 92.77 8.322 92.77 10.746 97.46 10.746 97.46 12.189 92.77 12.189 92.77 14.782 97.558 14.782 97.558 16.226 91.122 16.226zM103.712 9.415L103.712 16.226 102.064 16.226 102.064 6.877 103.754 6.877 108.557 13.507 108.557 6.877 110.204 6.877 110.204 16.226 108.613 16.226zM116.991 12.988h3.521l-1.76-4.723-1.76 4.723zm3.986 1.444h-4.45l-.69 1.794h-1.803l3.69-9.349h2.056l3.69 9.349h-1.803l-.69-1.794z"/>
        <mask id="9ur0degojb" fill="#fff">
            <use xlink:href="#vfphzmagpa"/>
        </mask>
        <path fill="#F7A501" d="M13.567 0.322L0 1.193 2.869 20.843 5.854 22.796 5.854 4.374 15.451 1.378z" mask="url(#9ur0degojb)"/>
        <path fill="#F7A501" d="M7.376 14.813L9.241 14.18 9.241 13.204 12.487 12.104 12.487 10.304 7.376 11.813z"/>
    </g>
</svg>
